<svg xmlns="http://www.w3.org/2000/svg" xmlns:xlink="http://www.w3.org/1999/xlink" id="tuw-logo" version="1.1" x="0px" y="0px" style="enable-background:new 0 0 841.9 595.3;" xml:space="preserve" viewBox="103.4 229.3 635.2 123.8">
<style type="text/css">
	.st0{fill:#009EE3;}
	.st1{fill:#94C11C;}
	.st2{fill:#FFDD00;}
</style>
<g id="TEXT">
</g>
<g id="LOGO">
	<path class="st0" d="M262.1,236.2c-21.2,0-39.5,11.9-48.7,29.4v-36.3h-55v6.9c-30.4,0-55,24.6-55,55s24.6,55,55,55   c23.9,0,44.3-15.3,51.9-36.6c7.6,21.4,27.9,36.6,51.9,36.6h55v-55C317.2,260.9,292.5,236.2,262.1,236.2z"/>
	<path class="st1" d="M566,236.2c-23.9,0-44.3,15.3-51.9,36.6c-7.6-21.4-27.9-36.6-51.9-36.6c-16.4,0-31.2,7.2-41.3,18.6   c-10.1-11.4-24.8-18.6-41.3-18.6c-30.4,0-55,24.6-55,55v55h55h82.6c23.9,0,44.3-15.3,51.9-36.6c7.6,21.4,27.9,36.6,51.9,36.6h55   v-55C621.1,260.9,596.4,236.2,566,236.2z"/>
	<path class="st2" d="M683.6,236.2c-30.4,0-55,24.6-55,55v61.9h55v-6.9c30.4,0,55-24.6,55-55S714,236.2,683.6,236.2z"/>
</g>
</svg>