<?xml version="1.0" encoding="utf-8"?>
<!-- Generator: Adobe Illustrator 26.0.3, SVG Export Plug-In . SVG Version: 6.00 Build 0)  -->
<svg version="1.1" id="Ebene_1" xmlns="http://www.w3.org/2000/svg" xmlns:xlink="http://www.w3.org/1999/xlink" x="0px" y="0px"
	 viewBox="0 0 203.5 166.5" style="enable-background:new 0 0 203.5 166.5;" xml:space="preserve">
<style type="text/css">
    .st0{fill:#007D31;}
    .st1{fill:url(#SVGID_1_);}
    .st2{fill:#11A63C;}
    .st3{fill:url(#SVGID_00000124160208978027718530000010286857315272671121_);}
    .st4{fill:#EF783D;}
    .st5{fill:#333332;}
    .st6{font-family:'Open Sans', sans-serif; font-weight: 700;} 
    .st7{font-size:29.5px;}
</style>
<g>
	<g>
		<path class="st0" d="M121.5,9.7l-25,84.7c-0.4,1.3-1.5,2.2-2.9,2.2H69.3c-1.4,0-2.6-1-2.9-2.3L51.1,36.9h-0.3l-27,126.7
			c-0.3,1.4-1.5,2.4-2.9,2.4H3c-1.9,0-3.4-1.8-2.9-3.7L35.2,12c0.3-1.3,1.5-2.3,2.9-2.3h26.2c1.4,0,2.7,1,2.9,2.4l13.2,59h0.3
			l16-57.3c0.6-2.4,2.7-4,5.1-4H121.5z"/>
		<g>
			<linearGradient id="SVGID_1_" gradientUnits="userSpaceOnUse" x1="81.8303" y1="75.1886" x2="117.9954" y2="66.4364">
				<stop  offset="0.75" style="stop-color:#000000;stop-opacity:0"/>
				<stop  offset="1" style="stop-color:#000000;stop-opacity:0.3"/>
			</linearGradient>
			<path class="st1" d="M121.5,9.7l-25,84.7c-0.4,1.3-1.5,2.2-2.9,2.2H69.3c-1.4,0-2.6-1-2.9-2.3L51.1,36.9h-0.3l-27,126.7
				c-0.3,1.4-1.5,2.4-2.9,2.4H3c-1.9,0-3.4-1.8-2.9-3.7L35.2,12c0.3-1.3,1.5-2.3,2.9-2.3h26.2c1.4,0,2.7,1,2.9,2.4l13.2,59h0.3
				l16-57.3c0.6-2.4,2.7-4,5.1-4H121.5z"/>
		</g>
	</g>
	<g>
		<path class="st2" d="M192.2,0c0,0-8.6,0-13.2,0c-8.6,0-15.9,8.1-13.6,17.3l12.1,49.8c3.6,14.1-2.2,17.7-10.8,17.7
			c-8.8,0-17.7-3.6-21.2-17.2c-4.6-18-9-35.3-13.4-53.8c-0.6-2.4-2.7-4.1-5.2-4.1H102c2.5,0,4.7,1.7,5.3,4.2
			c4.3,17.8,8.4,34.4,13.6,55.6c6.7,27.1,27.1,37.7,50.7,37.7c22.7,0,36.6-12.9,30.6-37.3l-12.8-52.7c-2.5-10.3,7-17.2,9.7-14.8
			C197.5,1.1,195.3,0,192.2,0"/>
		
			<linearGradient id="SVGID_00000126286361464441679090000016059004597647326634_" gradientUnits="userSpaceOnUse" x1="141.3367" y1="73.0255" x2="175.8504" y2="-1.1212">
			<stop  offset="0.75" style="stop-color:#000000;stop-opacity:0"/>
			<stop  offset="1" style="stop-color:#000000;stop-opacity:0.3"/>
		</linearGradient>
		<path style="fill:url(#SVGID_00000126286361464441679090000016059004597647326634_);" d="M192.2,0c0,0-8.6,0-13.2,0
			c-8.6,0-15.9,8.1-13.6,17.3l12.1,49.8c3.6,14.1-2.2,17.7-10.8,17.7c-8.8,0-17.7-3.6-21.2-17.2c-4.6-18-9-35.3-13.4-53.8
			c-0.6-2.4-2.7-4.1-5.2-4.1H102c2.5,0,4.7,1.7,5.3,4.2c4.3,17.8,8.4,34.4,13.6,55.6c6.7,27.1,27.1,37.7,50.7,37.7
			c22.7,0,36.6-12.9,30.6-37.3l-12.8-52.7c-2.5-10.3,7-17.2,9.7-14.8C197.5,1.1,195.3,0,192.2,0"/>
	</g>
	<g>
		<path class="st4" d="M192.2,0c-5.4,0-10.3,0-13.2,0c7.7,0,14,6.3,14,14c0,0,2.6-8.2,2.6-8.2l6.7,2.7C202.3,8.6,201,0,192.2,0z"/>
	</g>
</g>
<text transform="matrix(1 0 0 1 59.7659 138.0263)"><tspan x="0" y="0" class="st5 st6 st7">Med Uni</tspan><tspan x="0" y="27.5" class="st5 st6 st7">Graz</tspan></text>
</svg>
